<svg width="35" height="40" viewBox="0 0 35 40" fill="none" xmlns="http://www.w3.org/2000/svg">
<g clip-path="url(#clip0_124_40)">
<path d="M14.8828 5.22656L16.6172 3.49219C17.3516 2.75781 18.5391 2.75781 19.2656 3.49219L34.4531 18.6719C35.1875 19.4063 35.1875 20.5938 34.4531 21.3203L19.2656 36.5078C18.5312 37.2422 17.3438 37.2422 16.6172 36.5078L14.8828 34.7734C14.1406 34.0313 14.1562 32.8203 14.9141 32.0938L24.3281 23.125H1.875C0.835938 23.125 0 22.2891 0 21.25V18.75C0 17.7109 0.835938 16.875 1.875 16.875H24.3281L14.9141 7.90625C14.1484 7.17969 14.1328 5.96875 14.8828 5.22656Z" fill="black"/>
</g>
<defs>
<clipPath id="clip0_124_40">
<rect width="35" height="40" fill="white"/>
</clipPath>
</defs>
</svg>
