<svg width="45" height="45" viewBox="0 0 45 45" fill="none" xmlns="http://www.w3.org/2000/svg">
<g clip-path="url(#clip0_112_170)">
<path d="M40.1786 2.8125H4.82143C3.54271 2.8125 2.31636 3.25697 1.41216 4.04814C0.50797 4.83931 0 5.91237 0 7.03125L0 37.9688C0 39.0876 0.50797 40.1607 1.41216 40.9519C2.31636 41.743 3.54271 42.1875 4.82143 42.1875H18.6077V28.8009H12.2796V22.5H18.6077V17.6977C18.6077 12.2353 22.3242 9.21797 28.0165 9.21797C30.7426 9.21797 33.5933 9.64336 33.5933 9.64336V15.0047H30.4523C27.3576 15.0047 26.3923 16.6852 26.3923 18.4087V22.5H33.301L32.1961 28.8009H26.3923V42.1875H40.1786C41.4573 42.1875 42.6836 41.743 43.5878 40.9519C44.492 40.1607 45 39.0876 45 37.9688V7.03125C45 5.91237 44.492 4.83931 43.5878 4.04814C42.6836 3.25697 41.4573 2.8125 40.1786 2.8125Z" fill="white"/>
</g>
<defs>
<clipPath id="clip0_112_170">
<rect width="45" height="45" fill="white"/>
</clipPath>
</defs>
</svg>
