<svg width="45" height="41" viewBox="0 0 45 41" fill="none" xmlns="http://www.w3.org/2000/svg">
<path d="M22.5101 10.3923C16.1217 10.3923 10.9688 14.9011 10.9688 20.491C10.9688 26.0808 16.1217 30.5896 22.5101 30.5896C28.8985 30.5896 34.0514 26.0808 34.0514 20.491C34.0514 14.9011 28.8985 10.3923 22.5101 10.3923ZM22.5101 27.0564C18.3817 27.0564 15.0067 24.1121 15.0067 20.491C15.0067 16.8699 18.3717 13.9255 22.5101 13.9255C26.6485 13.9255 30.0134 16.8699 30.0134 20.491C30.0134 24.1121 26.6384 27.0564 22.5101 27.0564V27.0564ZM37.2154 9.97925C37.2154 11.2888 36.0101 12.3347 34.5235 12.3347C33.0268 12.3347 31.8315 11.28 31.8315 9.97925C31.8315 8.67846 33.0368 7.62378 34.5235 7.62378C36.0101 7.62378 37.2154 8.67846 37.2154 9.97925ZM44.8594 12.3699C44.6886 9.2146 43.865 6.41968 41.2232 4.11694C38.5915 1.81421 35.3973 1.09351 31.7913 0.935303C28.0748 0.750732 16.9353 0.750732 13.2188 0.935303C9.62279 1.08472 6.4286 1.80542 3.78686 4.10815C1.14512 6.41089 0.331499 9.20581 0.150696 12.3611C-0.0602417 15.613 -0.0602417 25.3601 0.150696 28.6121C0.321455 31.7673 1.14512 34.5622 3.78686 36.865C6.4286 39.1677 9.61275 39.8884 13.2188 40.0466C16.9353 40.2312 28.0748 40.2312 31.7913 40.0466C35.3973 39.8972 38.5915 39.1765 41.2232 36.865C43.8549 34.5622 44.6786 31.7673 44.8594 28.6121C45.0703 25.3601 45.0703 15.6218 44.8594 12.3699V12.3699ZM40.058 32.1013C39.2746 33.824 37.7578 35.1511 35.779 35.8454C32.8159 36.8738 25.7846 36.6365 22.5101 36.6365C19.2355 36.6365 12.1942 36.865 9.24109 35.8454C7.27234 35.1599 5.7556 33.8328 4.96208 32.1013C3.78686 29.5085 4.05806 23.3562 4.05806 20.491C4.05806 17.6257 3.7969 11.4646 4.96208 8.88061C5.74556 7.15796 7.2623 5.83081 9.24109 5.13647C12.2043 4.10815 19.2355 4.34546 22.5101 4.34546C25.7846 4.34546 32.8259 4.11694 35.779 5.13647C37.7478 5.82202 39.2645 7.14917 40.058 8.88061C41.2333 11.4734 40.9621 17.6257 40.9621 20.491C40.9621 23.3562 41.2333 29.5173 40.058 32.1013Z" fill="white"/>
</svg>
