<svg width="70" height="70" viewBox="0 0 70 70" fill="none" xmlns="http://www.w3.org/2000/svg">
<path d="M35 1.09375C15.6653 1.09375 0 16.2695 0 35C0 53.7305 15.6653 68.9062 35 68.9062C54.3347 68.9062 70 53.7305 70 35C70 16.2695 54.3347 1.09375 35 1.09375ZM46.2903 24.0625C48.7883 24.0625 50.8065 26.0176 50.8065 28.4375C50.8065 30.8574 48.7883 32.8125 46.2903 32.8125C43.7923 32.8125 41.7742 30.8574 41.7742 28.4375C41.7742 26.0176 43.7923 24.0625 46.2903 24.0625ZM23.7097 24.0625C26.2077 24.0625 28.2258 26.0176 28.2258 28.4375C28.2258 30.8574 26.2077 32.8125 23.7097 32.8125C21.2117 32.8125 19.1935 30.8574 19.1935 28.4375C19.1935 26.0176 21.2117 24.0625 23.7097 24.0625ZM51.2016 47.332C47.1794 52.0078 41.2802 54.6875 35 54.6875C28.7198 54.6875 22.8206 52.0078 18.7984 47.332C16.879 45.1035 20.3508 42.3145 22.2702 44.5293C25.4315 48.207 30.0605 50.2988 35 50.2988C39.9395 50.2988 44.5686 48.1934 47.7298 44.5293C49.621 42.3145 53.1069 45.1035 51.2016 47.332Z" fill="#9F553B"/>
</svg>
