<svg xmlns="http://www.w3.org/2000/svg" viewBox="0 0 121 133.82"><defs><style>.cls-1{fill:#9f553b;}.cls-1,.cls-2{stroke:#984a2c;stroke-miterlimit:10;}.cls-2{fill:none;}</style></defs><g id="Слой_2" data-name="Слой 2"><g id="Слой_1-2" data-name="Слой 1"><circle class="cls-1" cx="60.32" cy="60.32" r="15"/><circle class="cls-2" cx="60.32" cy="60.32" r="25"/><path class="cls-1" d="M60.5,35.32a25,25,0,0,0-9.75,1.91,24.77,24.77,0,0,0-8.23,5.54c-2.35-8.34,3.24-17.61,3.24-17.61S56.25,27.76,60.5,35.32Z"/><path class="cls-1" d="M42.77,42.52a25,25,0,0,0-7.45,18c-7.56-4.24-10.16-14.74-10.16-14.74S34.42,40.18,42.77,42.52Z"/><path class="cls-1" d="M35.32,60.15a25,25,0,0,0,7.45,18c-8.35,2.35-17.61-3.24-17.61-3.24S27.76,64.39,35.32,60.15Z"/><path class="cls-1" d="M42.52,77.88a25,25,0,0,0,18,7.44c-4.24,7.57-14.74,10.17-14.74,10.17S40.17,86.23,42.52,77.88Z"/><path class="cls-1" d="M60.14,85.32a25,25,0,0,0,18-7.44c2.36,8.34-3.23,17.61-3.23,17.61S64.39,92.89,60.14,85.32Z"/><path class="cls-1" d="M77.87,78.13a25,25,0,0,0,7.45-18c7.56,4.24,10.16,14.74,10.16,14.74S86.22,80.47,77.87,78.13Z"/><path class="cls-1" d="M85.32,60.5a25,25,0,0,0-7.45-18c8.35-2.35,17.61,3.24,17.61,3.24S92.88,56.25,85.32,60.5Z"/><path class="cls-1" d="M78.12,42.77a24.77,24.77,0,0,0-8.23-5.54,25,25,0,0,0-9.75-1.91c4.24-7.56,14.75-10.16,14.75-10.16S80.47,34.42,78.12,42.77Z"/><path class="cls-2" d="M102.07,61.43a79.12,79.12,0,0,1,1.75,17.4A77.26,77.26,0,0,1,89.08,90.61,79.25,79.25,0,0,1,78,104.17a77.23,77.23,0,0,1-18.77-2.1,79.58,79.58,0,0,1-17.41,1.76A77.35,77.35,0,0,1,30,89.06,79.36,79.36,0,0,1,16.47,78a77.33,77.33,0,0,1,2.1-18.78,79.12,79.12,0,0,1-1.75-17.4A77.49,77.49,0,0,1,31.58,30,79.53,79.53,0,0,1,42.64,16.48a77.17,77.17,0,0,1,18.76,2.1h0a79.58,79.58,0,0,1,17.41-1.76,77.73,77.73,0,0,1,11.8,14.77h0a79.59,79.59,0,0,1,13.54,11.06,77.27,77.27,0,0,1-2.1,18.77Z"/><path class="cls-2" d="M102.07,61.43a79.12,79.12,0,0,1,1.75,17.4A77.26,77.26,0,0,1,89.08,90.61,79.25,79.25,0,0,1,78,104.17a77.23,77.23,0,0,1-18.77-2.1,79.58,79.58,0,0,1-17.41,1.76A77.35,77.35,0,0,1,30,89.06,79.36,79.36,0,0,1,16.47,78a77.33,77.33,0,0,1,2.1-18.78,79.12,79.12,0,0,1-1.75-17.4A77.49,77.49,0,0,1,31.58,30,79.53,79.53,0,0,1,42.64,16.48a77.17,77.17,0,0,1,18.76,2.1h0a79.58,79.58,0,0,1,17.41-1.76,77.73,77.73,0,0,1,11.8,14.77h0a79.59,79.59,0,0,1,13.54,11.06,77.27,77.27,0,0,1-2.1,18.77Z"/><path class="cls-1" d="M60.5.5a60,60,0,0,0-48.76,95,29,29,0,0,1,32,22.66,60.16,60.16,0,0,0,33.16.08,29,29,0,0,1,28.37-23,28.59,28.59,0,0,1,3.95.27A60,60,0,0,0,60.5.5Zm43.32,78.33A77.26,77.26,0,0,1,89.08,90.61,79.25,79.25,0,0,1,78,104.17a77.23,77.23,0,0,1-18.77-2.1,79.58,79.58,0,0,1-17.41,1.76A77.35,77.35,0,0,1,30,89.06,79.36,79.36,0,0,1,16.47,78a77.33,77.33,0,0,1,2.1-18.78,79.12,79.12,0,0,1-1.75-17.4A77.49,77.49,0,0,1,31.58,30,79.53,79.53,0,0,1,42.64,16.48a77.17,77.17,0,0,1,18.76,2.1h0a79.58,79.58,0,0,1,17.41-1.76,77.73,77.73,0,0,1,11.8,14.77h0a79.59,79.59,0,0,1,13.54,11.06,77.27,77.27,0,0,1-2.1,18.77h0A79.12,79.12,0,0,1,103.82,78.83Z"/><path class="cls-1" d="M114.38,107.55v25.77H88.54V120.44a12.91,12.91,0,0,1,12.16-12.89Z"/><path class="cls-1" d="M6.26,107.55v25.77H32.1V120.44a12.91,12.91,0,0,0-12.16-12.89Z"/></g></g></svg>