<svg xmlns="http://www.w3.org/2000/svg" viewBox="0 0 1920.26 942.35"><g data-name="Слой 2"><path d="M.07 4.22C77.64-6.65 106.36 8.13 117.67 24.9c13.77 20.44.6 42.22 19.91 65.11 20.55 24.36 56.38 24.47 68.17 24.51 11.61 0 44.92.14 54.38-19.15 6-12.16 1.62-30.29-5.36-32.17-6.22-1.68-17.12 8.86-18.38 19.91-1.63 14.25 13.49 22.87 25.28 37.54 24 29.88 8.94 53.44 23 88.85 16 40.44 63.25 79.27 101.88 74.3 45.13-5.82 75.41-71 91.91-62.05 6.36 3.46 8.85 16.93 12.26 16.09 2.74-.69 1.58-9.57 5.36-10.73 2.48-.76 6.14 2.12 7.66 5.37 2 4.37-.92 7 0 11.49 1.41 6.83 9.86 7.73 14.55 13 8.12 9.16.92 26.95-.77 33.7-9.29 37.19 66.73 68.18 91.15 125.62 26.74 62.87-21.14 127.39-3.06 137.1 21.72 11.67 82.11-86.16 120.26-71.23 17.58 6.88 9.93 29.7 37.53 57.44 29.79 30 74.43 39.27 92.68 27.58 2.16-1.39 12.2-7.82 12.25-16.09.05-7.46-3.44-11.32-3.44-11.32-1.05-1.16-1.8-1.51-1.92-2.46-.39-3.31 7.63-8.34 13.79-8.43 10-.15 17.76 12.79 21.45 19.15 23 39.66 28.77 66 39.06 80.43 20.8 29.24 61.84 13 132.51 22.21 120.91 15.83 128.93 80.26 212.17 69.7 48.71-6.18 80-32.57 119.11-13.4 15.19 7.45 35.23 23.6 32.17 35.61-3.6 14.15-39.22 22.64-51.71 10.34-13.38-13.18-4.36-54.38 18.39-67.78 32.31-19 88.82 20.06 152.81 64.34 43.11 29.83 66.41 43.16 83.87 66.64 35.86 48.19 24.27 80.84 46.72 104.93 23.08 24.76 80.27 38.5 236.79-24.51" style="fill:none;stroke:#c2c6bf;stroke-miterlimit:10" data-name="Слой 1"/></g></svg>