<svg width="70" height="70" fill="none" xmlns="http://www.w3.org/2000/svg"><path d="M35 1.094C15.665 1.094 0 16.27 0 35c0 18.73 15.665 33.906 35 33.906S70 53.73 70 35C70 16.27 54.335 1.094 35 1.094Zm11.29 22.968c2.498 0 4.517 1.956 4.517 4.375 0 2.42-2.019 4.375-4.517 4.375s-4.516-1.955-4.516-4.374c0-2.42 2.018-4.375 4.516-4.375Zm-22.58 0c2.498 0 4.516 1.956 4.516 4.375 0 2.42-2.018 4.375-4.516 4.375s-4.517-1.955-4.517-4.374c0-2.42 2.019-4.375 4.517-4.375Zm27.492 23.27C47.179 52.008 41.28 54.687 35 54.687c-6.28 0-12.18-2.68-16.202-7.355-1.919-2.229 1.553-5.017 3.472-2.803 3.162 3.678 7.79 5.77 12.73 5.77s9.569-2.106 12.73-5.77c1.891-2.215 5.377.574 3.472 2.803Z" fill="#9F553B"/></svg>