<svg xmlns="http://www.w3.org/2000/svg" viewBox="0 0 173.28 101.88"><g data-name="Слой 2"><path d="M104.54 43.55c0 23.64-17.9 42.81-17.9 42.81S68.75 67.19 68.75 43.55 86.64.73 86.64.73s17.9 19.17 17.9 42.82Zm17.8 15.1C116.89 66.42 109.5 72 102.6 75.79c4.73-8.51 8.16-20 9.28-32.8a94.14 94.14 0 0 0-.47-21.24 78.25 78.25 0 0 1 20.83-8.44s3.66 25.97-9.9 45.34Zm40.19-12.96S152.73 70 131.3 80a55.41 55.41 0 0 1-19.75 4.84 86.52 86.52 0 0 0 22.13-22.31 93 93 0 0 0 10.69-19.86 77 77 0 0 1 18.16 3.02Zm10.02 36.17S151.9 98 128.34 96a53.54 53.54 0 0 1-16.58-4.33c9.3-.48 20.15-3.23 31-8.29a93.28 93.28 0 0 0 18.42-11.24 73.93 73.93 0 0 1 11.37 9.72ZM51 58.65C56.39 66.42 63.79 72 70.69 75.79 66 67.28 62.52 55.8 61.4 43a94.14 94.14 0 0 1 .47-21.24 78.12 78.12 0 0 0-20.82-8.44S37.38 39.28 51 58.65ZM10.75 45.69S20.56 70 42 80a55.31 55.31 0 0 0 19.75 4.84A86.39 86.39 0 0 1 39.6 62.53a93.42 93.42 0 0 1-10.69-19.86 77 77 0 0 0-18.16 3.02ZM.73 81.86S21.38 98 44.94 96a53.47 53.47 0 0 0 16.58-4.33c-9.3-.48-20.15-3.23-31-8.29A93.37 93.37 0 0 1 12.1 72.09 74.54 74.54 0 0 0 .73 81.86Z" style="fill:#9f553b;stroke:#984a2c;stroke-miterlimit:10" data-name="Слой 1"/></g></svg>