<svg xmlns="http://www.w3.org/2000/svg" viewBox="0 0 1920.06 458.42"><g data-name="Слой 2"><path d="M0 .5c13.79.44 29.68 3.36 37 14.55 10 15.2-1.35 37.07 7.27 42.51 5.26 3.32 9.82-6.13 22.6-7.27 11.61-1 16.4 5.78 49 19.91 10.65 4.61 15.66 6.28 19.15 3.83 6-4.19 5.21-18.86 1.15-20.3-6.27-2.22-32.31 22.87-25.28 49 5.77 21.47 31.28 34.16 42.13 29.1 3.87-1.8 6.37-6.09 13.4-7.28 1.39-.23 8.65-1.3 11.11 2.3s-1.78 9.9 0 11.11 7.53-5.07 9.19-3.83c1 .75-.72 3.37-.38 5 1.62 7.78 51-9.39 80 7.66 31 18.24 22.78 66.3 47.87 71.61 13.82 2.93 19.18-11 39.45-9.57 23.57 1.71 44.89 22.67 42.13 29.49-2.33 5.73-23.72 6.48-28.34-1.53-8.6-14.9 35.78-68.73 59.74-62 24.91 6.94.78 71.74 35.62 125.61 55.17 85.31 234.81 107 303.32 41 18.2-17.55 32.45-45 52.08-42.13 20.52 3 18 35 47.49 57.45 25.78 19.6 57.27 17.72 110.3 14.55 26.31-1.57 47.8-3.07 72.77-15.32 22.72-11.14 52.92-33.45 49-42.89-5.17-12.51-74-11.46-108 29.11-2.86 3.4-29.18 35.54-19.92 62 21.16 60.51 220.23 69.55 386.81 29.11 128.45-31.19 153.84-71.47 239-56.69 63.34 11 92.75 40.74 184.6 56.69a552.29 552.29 0 0 0 139.74 6.11" style="fill:none;stroke:#c2c6bf;stroke-miterlimit:10" data-name="Слой 1"/></g></svg>