<svg xmlns="http://www.w3.org/2000/svg" xml:space="preserve" width="1806.958" height="585.018" style="shape-rendering:geometricPrecision;text-rendering:geometricPrecision;image-rendering:optimizeQuality;fill-rule:evenodd;clip-rule:evenodd" viewBox="0 0 47809.1 15478.6"><defs><style>.fil0{fill:#403f41;fill-rule:nonzero}</style></defs><g id="Слой_x0020_1"><g id="_2310502456944"><path id="path30" class="fil0" d="M45610.17 5701.03h2193.56c-277.44-2135-1836.72-3257.22-4003.95-3257.22-2193.5 0-3660.28 1163.3-3660.28 3161.42 0 2271.83 1889.61 2778.16 2893.89 2983.52 1295 260.01 2563.56 287.4 2563.56 1436.95 0 780.1-634.28 1163.3-1532.83 1163.3-1110 0-1849.94-574.8-2035-1614.86H39862c132.11 2244.44 1704.67 3448.77 4017.17 3448.77 2140.67 0 3898.11-1012.72 3898.11-3202.45 0-2353.99-2021.72-2778.22-3435.67-2997.21-964.67-150.52-2021.78-287.4-2021.78-1341.21 0-739.02 541.78-1190.63 1453.56-1190.63 1057.17 0 1691.39 615.89 1836.78 1409.62z"/><path id="path32" class="fil0" d="M38659.51 2785.98h-2074.67v9922.13h2074.67z"/><path id="path26" class="fil0" d="M30321.31 9245.63h2708.95c-422.89 1067.56-1374.34 1573.83-2471.12 1573.83-1929.22 0-2827.78-1546.45-2827.78-3079.26 0-1546.51 845.67-3120.34 2814.61-3120.34 1202.5 0 2101 574.8 2444.61 1601.22l2233.18.01c-383.17-2312.85-2338.89-3640.37-4651.34-3640.37-2854.28 0-4995.01 2011.75-4995.01 5186.87 0 3216.14 2325.67 5118.46 4981.73 5118.46 2616.45 0 4664.62-1765.44 4664.62-4529.96V7548.6h-4902.45v1697.03z"/><path id="path36" class="fil0" d="M20833.51 2580.71c-2378.56 0-4136.06 1546.45-4122.84 4119.37h2140.72c-26.45-1122.22 660.67-2148.64 1876.39-2148.64 1057.17 0 1678.22 766.41 1678.22 1642.25 0 875.9-621.06 1368.6-1770.72 1902.38-1572.5 725.32-2695.67 1190.63-3845.34 1601.22v3010.84h8007.85v-2025.51h-5497.47s18.3-5.92 27.31-8.73c935.05-293.44 1637.52-612.24 2470.54-990.3 1783.89-821.12 2801.39-1847.6 2801.39-3599.34.01-2148.7-1532.83-3503.54-3766.05-3503.54z"/><path id="path22" d="M11081.41 9218.29c-2695.72 13.7-3131.78 1697.02-3277.11 3120.34l-66.06 629.52h-541.83l-66.06-629.52c-145.33-1423.32-594.61-3106.65-3197.84-3120.34-436.06-930.68-621.06-1683.39-621.06-2531.9 0-2121.25 1678.22-4105.74 4162.45-4105.74 2484.28 0 4136.06 1970.73 4136.06 4119.49.01 834.76-79.27 1587.47-528.55 2518.15zM7447.52 7.73C3351.13 7.73-5.32 3483.94-5.32 7740.14c0 4270.01 3356.45 7746.16 7452.84 7746.16 4136 0 7479.23-3476.15 7479.23-7746.16 0-4256.19-3343.23-7732.41-7479.23-7732.41z" style="fill:#29b24a;fill-rule:nonzero"/></g></g></svg>