<svg xmlns="http://www.w3.org/2000/svg" viewBox="0 0 125.48 125.59"><defs><style>.cls-1{font-size:15px;fill:#f2c94b;font-family:Calypso-Regular,Calypso}</style></defs><g id="Слой_2" data-name="Слой 2"><g id="Слой_1-2" data-name="Слой 1"><text class="cls-1" transform="matrix(.55 .84 -.84 .55 101.72 31.01)">K</text><text class="cls-1" transform="rotate(68.95 24.741 98.188)">R</text><text class="cls-1" transform="rotate(80.36 26.084 90.837)">E</text><text class="cls-1" transform="rotate(93.08 28.635 82.966)">M</text><text class="cls-1" transform="rotate(105.97 28.764 78.387)">L</text><text class="cls-1" transform="rotate(114.3 28.486 75.863)">I</text><text class="cls-1" transform="rotate(123.75 30.716 71.703)">N</text><text class="cls-1" transform="matrix(-.68 .74 -.74 -.68 100.89 95.23)"> </text><text class="cls-1" transform="rotate(141.69 32.058 66.311)">C</text><text class="cls-1" transform="rotate(153.67 32.076 63.255)">E</text><text class="cls-1" transform="matrix(-.97 .26 -.26 -.97 80.72 109.84)">R</text><text class="cls-1" transform="rotate(177.28 33.829 57.12)">A</text><text class="cls-1" transform="rotate(-168.5 35.42 53.793)">M</text><text class="cls-1" transform="rotate(-158.36 33.87 50.691)">I</text><text class="cls-1" transform="rotate(-149.24 35.783 48.533)">K</text><text class="cls-1" transform="rotate(-138.76 35.725 45.355)">S</text><text class="cls-1" transform="rotate(-132 35.076 42.942)"> </text><text class="cls-1" transform="rotate(-123.45 37.42 40.948)">K</text><text class="cls-1" transform="rotate(-111.27 38.422 36.797)">R</text><text class="cls-1" transform="matrix(-.17 -.98 .99 -.17 14.24 75.86)">E</text><text class="cls-1" transform="rotate(-87.12 41.437 26.929)">M</text><text class="cls-1" transform="rotate(-74.25 42.033 17.906)">L</text><text class="cls-1" transform="rotate(-65.92 42.463 9.954)">I</text><text class="cls-1" transform="rotate(-56.47 46.021 3.143)">N</text><text class="cls-1" transform="rotate(-48 46.697 -12.23)"> </text><text class="cls-1" transform="rotate(-38.52 52.533 -25.03)">C</text><text class="cls-1" transform="matrix(.89 -.45 .45 .89 36.43 19.98)">E</text><text class="cls-1" transform="rotate(-15.07 82.128 -160.599)">R</text><text class="cls-1" transform="rotate(-2.95 281.268 -1060.485)">A</text><text class="cls-1" transform="matrix(.98 .18 -.18 .98 65.37 12.35)">M</text><text class="cls-1" transform="rotate(21.6 .105 218.396) skewX(-.5)">I</text><text class="cls-1" transform="rotate(30.52 10.665 161.65)">K</text><text class="cls-1" transform="rotate(41.4 16.705 134.02)">S</text></g></g></svg>