<svg xmlns="http://www.w3.org/2000/svg" viewBox="0 0 254.36 254.37"><defs><style>.cls-1{font-size:32px;fill:#a0563b;font-family:Calypso-Regular,Calypso}</style></defs><g id="Слой_2" data-name="Слой 2"><g id="Слой_1-2" data-name="Слой 1"><text class="cls-1" transform="rotate(56.71 43.933 221.211)">K</text><text class="cls-1" transform="rotate(68.99 49.51 197.887)">R</text><text class="cls-1" transform="rotate(80.47 52.397 183.014)">E</text><text class="cls-1" transform="rotate(93.4 57.77 166.623)">M</text><text class="cls-1" transform="rotate(106.41 58.214 157.6)">L</text><text class="cls-1" transform="rotate(114.6 57.584 152.694)">I</text><text class="cls-1" transform="rotate(123.97 62.333 144.259)">N</text><text class="cls-1" transform="matrix(-.68 .74 -.74 -.68 203.6 191.84)"> </text><text class="cls-1" transform="rotate(141.71 65.153 133.494)">C</text><text class="cls-1" transform="rotate(153.77 65.191 127.317)">E</text><text class="cls-1" transform="rotate(166 67.768 120.788)">R</text><text class="cls-1" transform="rotate(177.46 68.863 114.882)">A</text><text class="cls-1" transform="rotate(-168.82 72.041 108.076)">M</text><text class="cls-1" transform="rotate(-158.04 68.924 101.795)">I</text><text class="cls-1" transform="rotate(-149.3 72.674 97.675)">K</text><text class="cls-1" transform="rotate(-138.57 72.839 91.1)">S</text><text class="cls-1" transform="rotate(-132 71.488 86.317)"> </text><text class="cls-1" transform="rotate(-123.61 76.402 82.47)">K</text><text class="cls-1" transform="rotate(-111.34 78.547 74.058)">R</text><text class="cls-1" transform="rotate(-99.86 79.88 64.197)">E</text><text class="cls-1" transform="rotate(-86.96 85.066 54.06)">M</text><text class="cls-1" transform="rotate(-73.92 86.425 35.444)">L</text><text class="cls-1" transform="rotate(-65.74 87.321 19.385)">I</text><text class="cls-1" transform="rotate(-56.37 94.916 6.052)">N</text><text class="cls-1" transform="rotate(-48 96.336 -25.147)"> </text><text class="cls-1" transform="rotate(-38.63 108.67 -49.916)">C</text><text class="cls-1" transform="rotate(-26.56 125.908 -135.67)">E</text><text class="cls-1" transform="rotate(-15.07 171.993 -323.867)">R</text><text class="cls-1" transform="rotate(-2.87 611.792 -2202.37)">A</text><text class="cls-1" transform="rotate(10.85 -72.352 708.216)">M</text><text class="cls-1" transform="rotate(21.63 -4.807 432.403)">I</text><text class="cls-1" transform="rotate(30.7 19.77 324.946)">K</text><text class="cls-1" transform="rotate(41.1 31.43 272.287)">S</text></g></g></svg>