<svg xmlns="http://www.w3.org/2000/svg" viewBox="0 0 75.69 115.54"><g data-name="Слой 2"><g data-name="Layer 1"><path d="M46.94 22a28.75 28.75 0 0 0-28.75 28.72h28.75A28.75 28.75 0 0 0 75.69 22H46.94Z" style="fill:#9e9e9e"/><path d="M31.54 12.39A28.74 28.74 0 0 0 18 50.72l25.92-12.38A28.76 28.76 0 0 0 57.48 0Z" style="fill:#ededed"/><path d="M41.41 73.62a20.76 20.76 0 0 0-9.78-4.38 16.35 16.35 0 0 1-1.1-5.35c-.16-4.64 2.3-9.56 3.69-9.83a2.22 2.22 0 0 0 1.08-.47 2.08 2.08 0 0 0 .57-.77h-25a2.34 2.34 0 0 0 .57.77 2.26 2.26 0 0 0 1.08.47c1.39.27 3.85 5.19 3.69 9.83a15.78 15.78 0 0 1-1.1 5.35 20.76 20.76 0 0 0-9.78 4.38C-2.64 80.48.59 91.29.94 92.39c.9 2.82 1.9 3.62 6.15 10 3.65 5.53 6.34 10.13 8 13.1h16.54c1.68-3 4.37-7.57 8-13.1 4.25-6.43 5.25-7.23 6.15-10 .37-1.1 3.6-11.91-4.37-18.77Z" style="fill:#fff"/></g></g></svg>