<svg xmlns="http://www.w3.org/2000/svg" viewBox="0 0 254.36 254.37"><defs><style>.cls-1{font-size:32px;fill:#a0563b;font-family:Calypso-Regular, Calypso;}</style></defs><g id="Слой_2" data-name="Слой 2"><g id="Слой_1-2" data-name="Слой 1"><text class="cls-1" transform="translate(204.73 63.07) rotate(56.71)">K</text><text class="cls-1" transform="translate(216.49 80.72) rotate(68.99)">R</text><text class="cls-1" transform="translate(224.21 101.04) rotate(80.47)">E</text><text class="cls-1" transform="matrix(-0.06, 1, -1, -0.06, 227.86, 118.85)">M</text><text class="cls-1" transform="translate(225.84 146.28) rotate(106.41)">L</text><text class="cls-1" transform="translate(220.39 163.9) rotate(114.6)">I</text><text class="cls-1" transform="translate(216.8 173.17) rotate(123.97)">N</text><text class="cls-1" transform="matrix(-0.68, 0.74, -0.74, -0.68, 203.6, 191.84)"> </text><text class="cls-1" transform="translate(199.01 197.9) rotate(141.71)">C</text><text class="cls-1" transform="translate(179.94 212.71) rotate(153.77)">E</text><text class="cls-1" transform="matrix(-0.97, 0.25, -0.25, -0.97, 163.7, 221.01)">R</text><text class="cls-1" transform="translate(142.75 226.6) rotate(177.46)">A</text><text class="cls-1" transform="translate(121.76 228.07) rotate(-168.82)">M</text><text class="cls-1" transform="translate(94.78 221.98) rotate(-158.04)">I</text><text class="cls-1" transform="matrix(-0.86, -0.51, 0.51, -0.86, 85.36, 218.74)">K</text><text class="cls-1" transform="translate(67.17 207.6) rotate(-138.57)">S</text><text class="cls-1" transform="matrix(-0.67, -0.74, 0.74, -0.67, 55.51, 197.05)"> </text><text class="cls-1" transform="translate(50.01 191.75) rotate(-123.61)">K</text><text class="cls-1" transform="translate(38.15 174.17) rotate(-111.34)">R</text><text class="cls-1" transform="translate(30.31 153.89) rotate(-99.86)">E</text><text class="cls-1" transform="translate(26.57 136.14) rotate(-86.96)">M</text><text class="cls-1" transform="translate(28.43 108.67) rotate(-73.92)">L</text><text class="cls-1" transform="translate(33.77 91.03) rotate(-65.74)">I</text><text class="cls-1" transform="translate(37.31 81.73) rotate(-56.37)">N</text><text class="cls-1" transform="matrix(0.67, -0.74, 0.74, 0.67, 50.4, 62.99)"> </text><text class="cls-1" transform="translate(54.94 56.92) rotate(-38.63)">C</text><text class="cls-1" transform="translate(73.95 41.98) rotate(-26.56)">E</text><text class="cls-1" transform="translate(90.12 33.58) rotate(-15.07)">R</text><text class="cls-1" transform="translate(111.04 27.87) rotate(-2.87)">A</text><text class="cls-1" transform="translate(132.02 26.28) rotate(10.85)">M</text><text class="cls-1" transform="translate(159.05 32.22) rotate(21.63)">I</text><text class="cls-1" transform="matrix(0.86, 0.51, -0.51, 0.86, 168.49, 35.41)">K</text><text class="cls-1" transform="translate(186.74 46.44) rotate(41.1)">S</text></g></g></svg>