<svg xmlns="http://www.w3.org/2000/svg" viewBox="0 0 125.11 125.11"><defs><style>.cls-1{fill:#c2c6bf;stroke:#c2c6bf;stroke-miterlimit:10;}</style></defs><g id="Слой_2" data-name="Слой 2"><g id="Слой_1-2" data-name="Слой 1"><path class="cls-1" d="M53.12,23.54c0,12.6,9.43,22.81,9.43,22.81S72,36.14,72,23.54,62.55.74,62.55.74,53.12,11,53.12,23.54Z"/><path class="cls-1" d="M51.1,51.1s-.55-13.89-9.46-22.8-22.8-9.46-22.8-9.46.55,13.89,9.46,22.8S51.1,51.1,51.1,51.1Z"/><path class="cls-1" d="M46.35,62.55s-10.21-9.43-22.81-9.43S.74,62.55.74,62.55,11,72,23.54,72,46.35,62.55,46.35,62.55Z"/><path class="cls-1" d="M18.84,106.27s13.89-.55,22.8-9.46S51.1,74,51.1,74s-13.89.55-22.8,9.46S18.84,106.27,18.84,106.27Z"/><path class="cls-1" d="M53.12,101.57c0,12.59,9.43,22.8,9.43,22.8S72,114.16,72,101.57s-9.44-22.81-9.44-22.81S53.12,89,53.12,101.57Z"/><path class="cls-1" d="M74,74s.55,13.89,9.46,22.8,22.8,9.46,22.8,9.46-.55-13.89-9.46-22.8S74,74,74,74Z"/><path class="cls-1" d="M78.76,62.55S89,72,101.57,72s22.8-9.44,22.8-9.44-10.21-9.43-22.8-9.43S78.76,62.55,78.76,62.55Z"/><path class="cls-1" d="M106.27,18.84s-13.89.55-22.8,9.46S74,51.1,74,51.1s13.89-.55,22.8-9.46S106.27,18.84,106.27,18.84Z"/></g></g></svg>