<svg xmlns="http://www.w3.org/2000/svg" viewBox="0 0 125.48 125.59"><defs><style>.cls-1{font-size:15px;fill:#f2c94b;font-family:Calypso-Regular, Calypso;}</style></defs><g id="Слой_2" data-name="Слой 2"><g id="Слой_1-2" data-name="Слой 1"><text class="cls-1" transform="matrix(0.55, 0.84, -0.84, 0.55, 101.72, 31.01)">K</text><text class="cls-1" transform="translate(107.49 39.83) rotate(68.95)">R</text><text class="cls-1" transform="translate(111.27 49.91) rotate(80.36)">E</text><text class="cls-1" transform="translate(113.02 58.83) rotate(93.08)">M</text><text class="cls-1" transform="translate(112.04 72.3) rotate(105.97)">L</text><text class="cls-1" transform="translate(109.35 81.12) rotate(114.3)">I</text><text class="cls-1" transform="translate(107.4 86) rotate(123.75)">N</text><text class="cls-1" transform="matrix(-0.68, 0.74, -0.74, -0.68, 100.89, 95.23)"> </text><text class="cls-1" transform="translate(98.32 98.47) rotate(141.69)">C</text><text class="cls-1" transform="translate(88.88 105.72) rotate(153.67)">E</text><text class="cls-1" transform="matrix(-0.97, 0.26, -0.26, -0.97, 80.72, 109.84)">R</text><text class="cls-1" transform="translate(70.33 112.57) rotate(177.28)">A</text><text class="cls-1" transform="matrix(-0.98, -0.19, 0.19, -0.98, 59.91, 113.24)">M</text><text class="cls-1" transform="translate(46.66 110.3) rotate(-158.36)">I</text><text class="cls-1" transform="translate(41.71 108.54) rotate(-149.24)">K</text><text class="cls-1" transform="translate(32.69 103.01) rotate(-138.76)">S</text><text class="cls-1" transform="matrix(-0.67, -0.74, 0.74, -0.67, 26.8, 97.67)"> </text><text class="cls-1" transform="translate(23.88 94.74) rotate(-123.45)">K</text><text class="cls-1" transform="translate(18.07 85.95) rotate(-111.27)">R</text><text class="cls-1" transform="matrix(-0.17, -0.98, 0.99, -0.17, 14.24, 75.86)">E</text><text class="cls-1" transform="translate(12.46 66.96) rotate(-87.12)">M</text><text class="cls-1" transform="translate(13.39 53.5) rotate(-74.25)">L</text><text class="cls-1" transform="translate(16.05 44.66) rotate(-65.92)">I</text><text class="cls-1" transform="translate(17.98 39.77) rotate(-56.47)">N</text><text class="cls-1" transform="matrix(0.67, -0.74, 0.74, 0.67, 24.46, 30.52)"> </text><text class="cls-1" transform="translate(27.02 27.27) rotate(-38.52)">C</text><text class="cls-1" transform="matrix(0.89, -0.45, 0.45, 0.89, 36.43, 19.98)">E</text><text class="cls-1" transform="translate(44.58 15.83) rotate(-15.07)">R</text><text class="cls-1" transform="translate(54.95 13.07) rotate(-2.95)">A</text><text class="cls-1" transform="matrix(0.98, 0.18, -0.18, 0.98, 65.37, 12.35)">M</text><text class="cls-1" transform="matrix(0.93, 0.36, -0.37, 0.93, 78.63, 15.25)">I</text><text class="cls-1" transform="translate(83.57 16.98) rotate(30.52)">K</text><text class="cls-1" transform="matrix(0.75, 0.66, -0.66, 0.75, 92.63, 22.48)">S</text></g></g></svg>