<svg xmlns="http://www.w3.org/2000/svg" viewBox="0 0 75.69 115.54"><defs><style>.cls-1{fill:#9e9e9e;}.cls-2{fill:#ededed;}.cls-3{fill:#fff;}</style></defs><g id="Слой_2" data-name="Слой 2"><g id="Layer_1" data-name="Layer 1"><path class="cls-1" d="M46.94,22h0A28.75,28.75,0,0,0,18.19,50.72H46.94A28.75,28.75,0,0,0,75.69,22H46.94Z"/><path class="cls-2" d="M31.54,12.39h0A28.74,28.74,0,0,0,18,50.72h0L43.92,38.34h0A28.76,28.76,0,0,0,57.48,0h0Z"/><path class="cls-3" d="M41.41,73.62a20.76,20.76,0,0,0-9.78-4.38,16.35,16.35,0,0,1-1.1-5.35c-.16-4.64,2.3-9.56,3.69-9.83a2.22,2.22,0,0,0,1.08-.47,2.08,2.08,0,0,0,.57-.77l-12.41,0h-.18l-12.41,0a2.34,2.34,0,0,0,.57.77,2.26,2.26,0,0,0,1.08.47c1.39.27,3.85,5.19,3.69,9.83a15.78,15.78,0,0,1-1.1,5.35,20.76,20.76,0,0,0-9.78,4.38C-2.64,80.48.59,91.29.94,92.39c.9,2.82,1.9,3.62,6.15,10,3.65,5.53,6.34,10.13,8,13.1H31.63c1.68-3,4.37-7.57,8-13.1,4.25-6.43,5.25-7.23,6.15-10C46.15,91.29,49.38,80.48,41.41,73.62Z"/></g></g></svg>