<svg xmlns="http://www.w3.org/2000/svg" viewBox="0 0 178.31 157.58"><defs><style>.cls-1{font-size:13.21px;font-family:Mostery;letter-spacing:0.1em;}.cls-1,.cls-3{fill:#ededed;}.cls-2{fill:#9e9e9e;}.cls-4,.cls-5{fill:#fff;}.cls-5{font-size:24.54px;font-family:Barchella_Drumal, Barchella Drumal;}</style></defs><g id="Слой_2" data-name="Слой 2"><g id="Layer_1" data-name="Layer 1"><text class="cls-1" transform="translate(32.91 148.62)">ceramik for you</text><path class="cls-2" d="M96.77,52.71h0A24.75,24.75,0,0,0,72,77.45H96.77a24.75,24.75,0,0,0,24.75-24.74H96.77Z"/><path class="cls-3" d="M83.51,44.46h0a24.75,24.75,0,0,0-11.67,33h0L94.18,66.79h0a24.74,24.74,0,0,0,11.66-33h0Z"/><path class="cls-4" d="M92,97.16a17.83,17.83,0,0,0-8.42-3.77,14,14,0,0,1-.94-4.6c-.14-4,2-8.23,3.18-8.47a1.79,1.79,0,0,0,.92-.4,1.92,1.92,0,0,0,.5-.66l-10.69,0h-.15l-10.68,0a1.87,1.87,0,0,0,.49.66,1.78,1.78,0,0,0,.93.4c1.2.24,3.31,4.47,3.17,8.47a14,14,0,0,1-.94,4.6A17.87,17.87,0,0,0,61,97.16c-6.86,5.9-4.08,15.2-3.78,16.15.78,2.43,1.64,3.12,5.3,8.66,3.14,4.75,5.45,8.71,6.9,11.27H83.59c1.45-2.56,3.77-6.52,6.91-11.27,3.66-5.54,4.52-6.23,5.29-8.66C96.09,112.36,98.87,103.06,92,97.16Z"/><text/><text class="cls-5" transform="translate(20.48 91.16) rotate(-85.69)">K</text><text class="cls-5" transform="translate(21.92 75.26) rotate(-72.81)">R</text><text class="cls-5" transform="matrix(0.5, -0.87, 0.87, 0.5, 26.66, 60.76)">E</text><text class="cls-5" transform="translate(33.89 48.21) rotate(-46.82)">M</text><text class="cls-5" transform="matrix(0.83, -0.55, 0.55, 0.83, 46.03, 35.78)">L</text><text class="cls-5" transform="translate(58.53 28.03) rotate(-24.55)">I</text><text class="cls-5" transform="translate(64.64 25) rotate(-15.12)">N</text><text class="cls-5" transform="matrix(1, -0.09, 0.09, 1, 79.7, 21.43)"> </text><text class="cls-5" transform="translate(87.55 20.47) rotate(4.83)">C</text><text class="cls-5" transform="translate(104.11 22.18) rotate(17.99)">E</text><text class="cls-5" transform="matrix(0.86, 0.5, -0.5, 0.86, 117.87, 26.82)">R</text><text class="cls-5" transform="translate(130.26 33.92) rotate(43.93)">A</text><text class="cls-5" transform="translate(143.48 47) rotate(58.76)">M</text><text class="cls-5" transform="translate(152.03 62.32) rotate(68.96)">I</text><text class="cls-5" transform="translate(154.7 68.58) rotate(78.66)">K</text><text class="cls-5" transform="translate(157.55 83.81) rotate(90.93)">S</text><path class="cls-3" d="M155.92,100.08a29.84,29.84,0,0,1,0,11.87,38.8,38.8,0,0,1-3.93,11.2,40.76,40.76,0,0,1-6.92,9.59,31.13,31.13,0,0,1-9.55,7l-.28-.29a77,77,0,0,0,13.21-18.15A65.38,65.38,0,0,0,152.9,111a77.21,77.21,0,0,0,2.62-11Z"/><path class="cls-2" d="M111.37,153.84c-19,6.85-36.59,2.68-44.45.13"/><path class="cls-3" d="M40.8,137.74a31.87,31.87,0,0,1-9.45-7.29A41.38,41.38,0,0,1,21,109.13a30.29,30.29,0,0,1,.42-12l.4,0c.3,1.88.46,3.77.91,5.62s.84,3.69,1.33,5.52a68,68,0,0,0,4.17,10.56,70.78,70.78,0,0,0,5.75,9.8c1.1,1.54,2.23,3.07,3.43,4.53s2.43,2.93,3.71,4.33Z"/></g></g></svg>