<svg xmlns="http://www.w3.org/2000/svg" viewBox="0 0 1920.59 1447.68"><defs><style>.cls-1{fill:none;}.cls-1,.cls-2{stroke:#c2c6bf;stroke-miterlimit:10;}.cls-2{fill:#c2c6bf;}</style></defs><g id="Слой_2" data-name="Слой 2"><g id="Слой_1-2" data-name="Слой 1"><path class="cls-1" d="M1920.23,101.06c-25,26-67.86,63.49-129.71,84.26-98.89,33.2-158.27-5.93-199.91,36-38.77,39,.42,85.32-39.06,183.83-4.75,11.83-48.77,121.67-108,119.48-39.63-1.45-77.46-52.73-68.94-66.63,13.49-22,165.07,14,179.23,78.12,14.21,64.36-114.82,134.51-243.57,204.51-56.77,30.87-123.8,61-154,35.62-19.24-16.21-10.67-44.27-35.62-60.89-24.23-16.15-66.34-12.33-83.87,9.19-22.24,27.3,10.78,63.84-10.34,90.77-22.31,28.44-69.09.3-102.25,33.31-22.87,22.76-16.54,52-37.92,58.6-16.61,5.16-23.88-11.39-49.4-11.49-27.52-.1-59.12,19-65.49,46-.47,2-5.21,23.35,6.89,36.76,14.46,16,42.46,9.1,43.66,16.09.5,2.93-4,6.29-26.42,18.38-29.68,16-37.53,18.71-37.92,24.13-.83,11.61,34,15.08,35.62,26.43,3.33,24.13-150.93,34.22-264.26,132.12-41.3,35.69-107.93,109.61-87.32,154,20.94,45.06,128,51.17,136.73,29.87,11.35-27.73-124.31-150.18-244.73-131-54.81,8.74-70.36,41.07-194.17,119.49C81,1405,31.4,1431.41.23,1447.23"/><path class="cls-2" d="M887.18,147.54c2.91,7.4,10.8,11.22,10.8,11.22s3.19-8.17.28-15.57S887.46,132,887.46,132,884.28,140.14,887.18,147.54Z"/><path class="cls-2" d="M892.34,164.19s-3.52-8-10.81-11.21-15.57-.3-15.57-.3,3.53,8,10.81,11.21S892.34,164.19,892.34,164.19Z"/><path class="cls-2" d="M892.2,172s-8.17-3.19-15.57-.28-11.23,10.8-11.23,10.8,8.18,3.18,15.58.28S892.2,172,892.2,172Z"/><path class="cls-2" d="M886.12,204s8-3.53,11.21-10.81.3-15.57.3-15.57-8,3.52-11.21,10.81S886.12,204,886.12,204Z"/><path class="cls-2" d="M905.17,193.37c2.91,7.4,10.8,11.23,10.8,11.23s3.19-8.18.28-15.58-10.8-11.22-10.8-11.22S902.27,186,905.17,193.37Z"/><path class="cls-2" d="M911.09,172.37s3.53,8,10.81,11.21,15.57.3,15.57.3-3.52-8-10.81-11.21S911.09,172.37,911.09,172.37Z"/><path class="cls-2" d="M911.24,164.55s8.17,3.18,15.57.28S938,154,938,154s-8.17-3.19-15.57-.28S911.24,164.55,911.24,164.55Z"/><path class="cls-2" d="M917.32,132.53s-8,3.52-11.21,10.81-.3,15.57-.3,15.57,8-3.53,11.21-10.81S917.32,132.53,917.32,132.53Z"/><path class="cls-2" d="M1520.37,854.72c-1.48,7.81,3.16,15.26,3.16,15.26s7-5.22,8.54-13-3.16-15.25-3.16-15.25S1521.86,846.92,1520.37,854.72Z"/><path class="cls-2" d="M1515.86,871.56s1.3-8.67-3.17-15.24-13-8.56-13-8.56-1.3,8.67,3.17,15.25S1515.86,871.56,1515.86,871.56Z"/><path class="cls-2" d="M1511.57,878.11s-5.22-7.06-13-8.54-15.25,3.15-15.25,3.15,5.22,7,13,8.54S1511.57,878.11,1511.57,878.11Z"/><path class="cls-2" d="M1489.35,902s8.68,1.3,15.25-3.17,8.55-13,8.55-13-8.67-1.3-15.24,3.17S1489.35,902,1489.35,902Z"/><path class="cls-2" d="M1511.16,903.09c-1.49,7.81,3.15,15.25,3.15,15.25s7-5.21,8.54-13-3.15-15.25-3.15-15.25S1512.64,895.28,1511.16,903.09Z"/><path class="cls-2" d="M1527.36,888.48s-1.3,8.67,3.17,15.25,13,8.55,13,8.55,1.29-8.67-3.17-15.25S1527.36,888.48,1527.36,888.48Z"/><path class="cls-2" d="M1531.66,881.94s5.21,7,13,8.54,15.25-3.16,15.25-3.16-5.21-7.05-13-8.54S1531.66,881.94,1531.66,881.94Z"/><path class="cls-2" d="M1553.87,858.09s-8.67-1.3-15.25,3.17-8.55,13-8.55,13,8.67,1.3,15.25-3.17S1553.87,858.09,1553.87,858.09Z"/><path class="cls-2" d="M1394,17.2c-5.23,6-5,14.76-5,14.76s8.73-.94,14-6.93,5-14.75,5-14.75S1399.26,11.22,1394,17.2Z"/><path class="cls-2" d="M1381.63,29.46s5.5-6.83,5-14.77S1379.69.74,1379.69.74s-5.5,6.82-5,14.76S1381.63,29.46,1381.63,29.46Z"/><path class="cls-2" d="M1374.61,32.93s-.93-8.72-6.92-13.95-14.75-5-14.75-5,.93,8.72,6.92,14S1374.61,32.93,1374.61,32.93Z"/><path class="cls-2" d="M1343.39,42.28s6.83,5.51,14.76,5,14-6.9,14-6.9-6.83-5.51-14.76-5S1343.39,42.28,1343.39,42.28Z"/><path class="cls-2" d="M1361.64,54.28c-5.23,6-5,14.76-5,14.76s8.72-.94,13.95-6.93,5-14.75,5-14.75S1366.87,48.3,1361.64,54.28Z"/><path class="cls-2" d="M1383,49.86s-5.5,6.83-5,14.76,6.91,14,6.91,14,5.51-6.83,5-14.76S1383,49.86,1383,49.86Z"/><path class="cls-2" d="M1390,46.39s.93,8.72,6.92,14,14.75,5,14.75,5-.93-8.72-6.92-13.95S1390,46.39,1390,46.39Z"/><path class="cls-2" d="M1421.24,37s-6.83-5.5-14.76-5-14,6.91-14,6.91,6.83,5.5,14.76,5S1421.24,37,1421.24,37Z"/></g></g></svg>