<svg xmlns="http://www.w3.org/2000/svg" viewBox="0 0 125.11 125.11"><g data-name="Слой 2"><path d="M53.12 23.54c0 12.6 9.43 22.81 9.43 22.81S72 36.14 72 23.54 62.55.74 62.55.74 53.12 11 53.12 23.54ZM51.1 51.1s-.55-13.89-9.46-22.8-22.8-9.46-22.8-9.46.55 13.89 9.46 22.8 22.8 9.46 22.8 9.46Zm-4.75 11.45s-10.21-9.43-22.81-9.43S.74 62.55.74 62.55 11 72 23.54 72s22.81-9.45 22.81-9.45Zm-27.51 43.72s13.89-.55 22.8-9.46S51.1 74 51.1 74s-13.89.55-22.8 9.46-9.46 22.81-9.46 22.81Zm34.28-4.7c0 12.59 9.43 22.8 9.43 22.8S72 114.16 72 101.57s-9.44-22.81-9.44-22.81-9.44 10.24-9.44 22.81ZM74 74s.55 13.89 9.46 22.8 22.8 9.46 22.8 9.46-.55-13.89-9.46-22.8S74 74 74 74Zm4.76-11.45S89 72 101.57 72s22.8-9.44 22.8-9.44-10.21-9.43-22.8-9.43-22.81 9.42-22.81 9.42Zm27.51-43.71s-13.89.55-22.8 9.46S74 51.1 74 51.1s13.89-.55 22.8-9.46 9.47-22.8 9.47-22.8Z" style="fill:#c2c6bf;stroke:#c2c6bf;stroke-miterlimit:10" data-name="Слой 1"/></g></svg>