<svg xmlns="http://www.w3.org/2000/svg" viewBox="0 0 178.31 157.58"><defs><style>.cls-3{fill:#ededed}.cls-2{fill:#9e9e9e}.cls-5{fill:#fff;font-size:24.54px;font-family:Barchella_Drumal,Barchella Drumal}</style></defs><g id="Слой_2" data-name="Слой 2"><g id="Layer_1" data-name="Layer 1"><text transform="translate(32.91 148.62)" style="fill:#ededed;font-size:13.21px;font-family:Mostery;letter-spacing:.1em">ceramik for you</text><path class="cls-2" d="M96.77 52.71A24.75 24.75 0 0 0 72 77.45h24.77a24.75 24.75 0 0 0 24.75-24.74H96.77Z"/><path class="cls-3" d="M83.51 44.46a24.75 24.75 0 0 0-11.67 33l22.34-10.67a24.74 24.74 0 0 0 11.66-33Z"/><path d="M92 97.16a17.83 17.83 0 0 0-8.42-3.77 14 14 0 0 1-.94-4.6c-.14-4 2-8.23 3.18-8.47a1.79 1.79 0 0 0 .92-.4 1.92 1.92 0 0 0 .5-.66H65.72a1.87 1.87 0 0 0 .49.66 1.78 1.78 0 0 0 .93.4c1.2.24 3.31 4.47 3.17 8.47a14 14 0 0 1-.94 4.6A17.87 17.87 0 0 0 61 97.16c-6.86 5.9-4.08 15.2-3.78 16.15.78 2.43 1.64 3.12 5.3 8.66 3.14 4.75 5.45 8.71 6.9 11.27h14.17c1.45-2.56 3.77-6.52 6.91-11.27 3.66-5.54 4.52-6.23 5.29-8.66.3-.95 3.08-10.25-3.79-16.15Z" style="fill:#fff"/><text class="cls-5" transform="rotate(-85.69 59.384 34.54)">K</text><text class="cls-5" transform="rotate(-72.81 61.99 22.767)">R</text><text class="cls-5" transform="matrix(.5 -.87 .87 .5 26.66 60.76)">E</text><text class="cls-5" transform="rotate(-46.82 72.622 -15.034)">M</text><text class="cls-5" transform="matrix(.83 -.55 .55 .83 46.03 35.78)">L</text><text class="cls-5" transform="rotate(-24.55 93.679 -120.488)">I</text><text class="cls-5" transform="rotate(-15.12 126.505 -231.024)">N</text><text class="cls-5" transform="matrix(1 -.09 .09 1 79.7 21.43)"> </text><text class="cls-5" transform="rotate(4.83 -198.906 1048.18)">C</text><text class="cls-5" transform="rotate(17.99 -18.004 339.938)">E</text><text class="cls-5" transform="matrix(.86 .5 -.5 .86 117.87 26.82)">R</text><text class="cls-5" transform="rotate(43.93 23.079 178.446)">A</text><text class="cls-5" transform="rotate(58.76 30 150.922)">M</text><text class="cls-5" transform="rotate(68.96 30.643 141.845)">I</text><text class="cls-5" transform="rotate(78.66 35.5 128.692)">K</text><text class="cls-5" transform="rotate(90.93 37.545 119.412)">S</text><path class="cls-3" d="M155.92 100.08a29.84 29.84 0 0 1 0 11.87 38.8 38.8 0 0 1-3.93 11.2 40.76 40.76 0 0 1-6.92 9.59 31.13 31.13 0 0 1-9.55 7l-.28-.29a77 77 0 0 0 13.21-18.15 65.38 65.38 0 0 0 4.45-10.3 77.21 77.21 0 0 0 2.62-11Z"/><path class="cls-2" d="M111.37 153.84c-19 6.85-36.59 2.68-44.45.13"/><path class="cls-3" d="M40.8 137.74a31.87 31.87 0 0 1-9.45-7.29A41.38 41.38 0 0 1 21 109.13a30.29 30.29 0 0 1 .42-12h.4c.3 1.88.46 3.77.91 5.62s.84 3.69 1.33 5.52a68 68 0 0 0 4.17 10.56 70.78 70.78 0 0 0 5.75 9.8c1.1 1.54 2.23 3.07 3.43 4.53s2.43 2.93 3.71 4.33Z"/></g></g></svg>