<svg xmlns="http://www.w3.org/2000/svg" viewBox="0 0 1920.59 1447.68"><g data-name="Слой 2"><g data-name="Слой 1"><path d="M1920.23 101.06c-25 26-67.86 63.49-129.71 84.26-98.89 33.2-158.27-5.93-199.91 36-38.77 39 .42 85.32-39.06 183.83-4.75 11.83-48.77 121.67-108 119.48-39.63-1.45-77.46-52.73-68.94-66.63 13.49-22 165.07 14 179.23 78.12 14.21 64.36-114.82 134.51-243.57 204.51-56.77 30.87-123.8 61-154 35.62-19.24-16.21-10.67-44.27-35.62-60.89-24.23-16.15-66.34-12.33-83.87 9.19-22.24 27.3 10.78 63.84-10.34 90.77-22.31 28.44-69.09.3-102.25 33.31-22.87 22.76-16.54 52-37.92 58.6-16.61 5.16-23.88-11.39-49.4-11.49-27.52-.1-59.12 19-65.49 46-.47 2-5.21 23.35 6.89 36.76 14.46 16 42.46 9.1 43.66 16.09.5 2.93-4 6.29-26.42 18.38-29.68 16-37.53 18.71-37.92 24.13-.83 11.61 34 15.08 35.62 26.43 3.33 24.13-150.93 34.22-264.26 132.12-41.3 35.69-107.93 109.61-87.32 154 20.94 45.06 128 51.17 136.73 29.87 11.35-27.73-124.31-150.18-244.73-131-54.81 8.74-70.36 41.07-194.17 119.49C81 1405 31.4 1431.41.23 1447.23" style="stroke:#c2c6bf;stroke-miterlimit:10;fill:none"/><path d="M887.18 147.54c2.91 7.4 10.8 11.22 10.8 11.22s3.19-8.17.28-15.57-10.8-11.19-10.8-11.19-3.18 8.14-.28 15.54Zm5.16 16.65s-3.52-8-10.81-11.21-15.57-.3-15.57-.3 3.53 8 10.81 11.21 15.57.3 15.57.3Zm-.14 7.81s-8.17-3.19-15.57-.28-11.23 10.8-11.23 10.8 8.18 3.18 15.58.28S892.2 172 892.2 172Zm-6.08 32s8-3.53 11.21-10.81.3-15.57.3-15.57-8 3.52-11.21 10.81-.3 15.57-.3 15.57Zm19.05-10.63c2.91 7.4 10.8 11.23 10.8 11.23s3.19-8.18.28-15.58-10.8-11.22-10.8-11.22-3.18 8.2-.28 15.57Zm5.92-21s3.53 8 10.81 11.21 15.57.3 15.57.3-3.52-8-10.81-11.21-15.57-.3-15.57-.3Zm.15-7.82s8.17 3.18 15.57.28S938 154 938 154s-8.17-3.19-15.57-.28-11.19 10.83-11.19 10.83Zm6.08-32.02s-8 3.52-11.21 10.81-.3 15.57-.3 15.57 8-3.53 11.21-10.81.3-15.57.3-15.57Zm603.05 722.19c-1.48 7.81 3.16 15.26 3.16 15.26s7-5.22 8.54-13-3.16-15.25-3.16-15.25-7.05 5.19-8.54 12.99Zm-4.51 16.84s1.3-8.67-3.17-15.24-13-8.56-13-8.56-1.3 8.67 3.17 15.25 13 8.55 13 8.55Zm-4.29 6.55s-5.22-7.06-13-8.54-15.25 3.15-15.25 3.15 5.22 7 13 8.54 15.25-3.15 15.25-3.15ZM1489.35 902s8.68 1.3 15.25-3.17 8.55-13 8.55-13-8.67-1.3-15.24 3.17-8.56 13-8.56 13Zm21.81 1.09c-1.49 7.81 3.15 15.25 3.15 15.25s7-5.21 8.54-13-3.15-15.25-3.15-15.25-7.06 5.19-8.54 13Zm16.2-14.61s-1.3 8.67 3.17 15.25 13 8.55 13 8.55 1.29-8.67-3.17-15.25-13-8.55-13-8.55Zm4.3-6.54s5.21 7 13 8.54 15.25-3.16 15.25-3.16-5.21-7.05-13-8.54-15.25 3.16-15.25 3.16Zm22.21-23.85s-8.67-1.3-15.25 3.17-8.55 13-8.55 13 8.67 1.3 15.25-3.17 8.55-13 8.55-13ZM1394 17.2c-5.23 6-5 14.76-5 14.76s8.73-.94 14-6.93 5-14.75 5-14.75-8.74.94-14 6.92Zm-12.37 12.26s5.5-6.83 5-14.77-6.94-13.95-6.94-13.95-5.5 6.82-5 14.76 6.94 13.96 6.94 13.96Zm-7.02 3.47s-.93-8.72-6.92-13.95-14.75-5-14.75-5 .93 8.72 6.92 14 14.75 4.95 14.75 4.95Zm-31.22 9.35s6.83 5.51 14.76 5 14-6.9 14-6.9-6.83-5.51-14.76-5-14 6.9-14 6.9Zm18.25 12c-5.23 6-5 14.76-5 14.76s8.72-.94 13.95-6.93 5-14.75 5-14.75-8.72.94-13.95 6.92Zm21.36-4.42s-5.5 6.83-5 14.76 6.91 14 6.91 14 5.51-6.83 5-14.76-6.91-14-6.91-14Zm7-3.47s.93 8.72 6.92 14 14.75 5 14.75 5-.93-8.72-6.92-13.95-14.75-5.05-14.75-5.05Zm31.24-9.39s-6.83-5.5-14.76-5-14 6.91-14 6.91 6.83 5.5 14.76 5 14-6.91 14-6.91Z" style="stroke:#c2c6bf;stroke-miterlimit:10;fill:#c2c6bf"/></g></g></svg>