<svg width="35" height="40" fill="none" xmlns="http://www.w3.org/2000/svg"><g clip-path="url(#a)"><path d="m14.883 5.227 1.734-1.735a1.867 1.867 0 0 1 2.649 0l15.187 15.18a1.867 1.867 0 0 1 0 2.648L19.266 36.508a1.867 1.867 0 0 1-2.649 0l-1.734-1.735a1.877 1.877 0 0 1 .031-2.68l9.414-8.968H1.875A1.87 1.87 0 0 1 0 21.25v-2.5a1.87 1.87 0 0 1 1.875-1.875h22.453l-9.414-8.969a1.864 1.864 0 0 1-.031-2.68Z" fill="#000"/></g><defs><clipPath id="a"><path fill="#fff" d="M0 0h35v40H0z"/></clipPath></defs></svg>