<svg width="45" height="45" fill="none" xmlns="http://www.w3.org/2000/svg"><g clip-path="url(#a)"><path d="M40.179 2.813H4.82c-1.278 0-2.505.444-3.409 1.235C.508 4.84 0 5.912 0 7.031V37.97c0 1.119.508 2.192 1.412 2.983.904.791 2.13 1.236 3.41 1.236h13.786V28.8H12.28v-6.3h6.328v-4.802c0-5.463 3.716-8.48 9.409-8.48 2.726 0 5.576.425 5.576.425v5.362h-3.14c-3.095 0-4.06 1.68-4.06 3.404V22.5H33.3l-1.105 6.3h-5.804v13.387H40.18c1.278 0 2.505-.444 3.409-1.235.904-.791 1.412-1.864 1.412-2.983V7.03c0-1.119-.508-2.192-1.412-2.983-.904-.791-2.13-1.236-3.41-1.236Z" fill="#fff"/></g><defs><clipPath id="a"><path fill="#fff" d="M0 0h45v45H0z"/></clipPath></defs></svg>