<svg width="45" height="41" fill="none" xmlns="http://www.w3.org/2000/svg"><path d="M22.51 10.392c-6.388 0-11.541 4.51-11.541 10.099 0 5.59 5.153 10.099 11.541 10.099 6.388 0 11.541-4.51 11.541-10.099 0-5.59-5.153-10.099-11.54-10.099Zm0 16.664c-4.128 0-7.503-2.944-7.503-6.565 0-3.621 3.365-6.566 7.503-6.566s7.503 2.945 7.503 6.566-3.375 6.565-7.503 6.565ZM37.215 9.98c0 1.31-1.205 2.356-2.692 2.356-1.496 0-2.692-1.055-2.692-2.356 0-1.3 1.206-2.355 2.692-2.355 1.487 0 2.692 1.054 2.692 2.355Zm7.644 2.39c-.17-3.154-.994-5.95-3.636-8.252-2.631-2.303-5.826-3.023-9.432-3.182-3.716-.184-14.856-.184-18.572 0-3.596.15-6.79.87-9.432 3.173C1.145 6.411.33 9.206.15 12.361c-.211 3.252-.211 13 0 16.251.17 3.155.994 5.95 3.636 8.253 2.642 2.303 5.826 3.023 9.432 3.182 3.716.184 14.856.184 18.572 0 3.606-.15 6.8-.87 9.432-3.182 2.632-2.303 3.456-5.098 3.636-8.253.211-3.252.211-12.99 0-16.242Zm-4.801 19.732c-.783 1.723-2.3 3.05-4.279 3.744-2.963 1.029-9.994.791-13.269.791-3.275 0-10.316.229-13.269-.79-1.969-.686-3.485-2.013-4.279-3.745-1.175-2.592-.904-8.745-.904-11.61s-.261-9.026.904-11.61c.784-1.723 2.3-3.05 4.28-3.745 2.962-1.028 9.993-.79 13.268-.79 3.275 0 10.316-.23 13.269.79 1.969.686 3.485 2.013 4.279 3.745 1.175 2.592.904 8.745.904 11.61s.271 9.026-.904 11.61Z" fill="#fff"/></svg>