<svg width="45" height="45" fill="none" xmlns="http://www.w3.org/2000/svg"><path d="M42.578 10.345c.29-1.099 0-1.908-1.39-1.908h-4.602c-1.172 0-1.711.695-2 1.468 0 0-2.344 6.425-5.656 10.591-1.07 1.204-1.563 1.59-2.149 1.59-.289 0-.734-.386-.734-1.484V10.345c0-1.319-.328-1.908-1.297-1.908h-7.234c-.735 0-1.172.616-1.172 1.187 0 1.248 1.656 1.538 1.828 5.054v7.629c0 1.67-.266 1.977-.852 1.977-1.562 0-5.36-6.451-7.61-13.834-.452-1.432-.898-2.012-2.077-2.012H3.03c-1.312 0-1.578.694-1.578 1.467 0 1.371 1.563 8.183 7.274 17.183 3.804 6.143 9.164 9.474 14.039 9.474 2.93 0 3.289-.738 3.289-2.012 0-5.871-.266-6.425 1.203-6.425.68 0 1.851.387 4.586 3.349 3.125 3.515 3.64 5.088 5.39 5.088h4.602c1.313 0 1.977-.738 1.594-2.197-.875-3.067-6.79-9.378-7.055-9.8-.68-.984-.484-1.423 0-2.302.008-.01 5.625-8.904 6.203-11.918Z" fill="#fff"/></svg>